Coordinates
version=1
nRows=6
nColumns=63
inDegrees=yes

Units are S.I. units (second, meters, Newtons, ...)
If the header above contains a line with 'inDegrees', this indicates whether rotational values are in degrees (yes) or radians (no).

endheader
time	pelvis_tilt	pelvis_list	pelvis_rotation	pelvis_tx	pelvis_ty	pelvis_tz	hip_flexion_r	hip_adduction_r	hip_rotation_r	knee_angle_r	knee_angle_r_beta	ankle_angle_r	subtalar_angle_r	mtp_angle_r	hip_flexion_l	hip_adduction_l	hip_rotation_l	knee_angle_l	knee_angle_l_beta	ankle_angle_l	subtalar_angle_l	mtp_angle_l	L5_S1_Flex_Ext	L5_S1_Lat_Bending	L5_S1_axial_rotation	L4_L5_Flex_Ext	L4_L5_Lat_Bending	L4_L5_axial_rotation	L3_L4_Flex_Ext	L3_L4_Lat_Bending	L3_L4_axial_rotation	L2_L3_Flex_Ext	L2_L3_Lat_Bending	L2_L3_axial_rotation	L1_L2_Flex_Ext	L1_L2_Lat_Bending	L1_L2_axial_rotation	L1_T12_Flex_Ext	L1_T12_Lat_Bending	L1_T12_axial_rotation	Abs_r3	Abs_r2	Abs_r1	Abs_t1	Abs_t2	neck_flexion	neck_bending	neck_rotation	arm_flex_r	arm_add_r	arm_rot_r	elbow_flex_r	pro_sup_r	wrist_flex_r	wrist_dev_r	arm_flex_l	arm_add_l	arm_rot_l	elbow_flex_l	pro_sup_l	wrist_flex_l	wrist_dev_l
     11.28205128	      5.09876982	    -11.10383830	    113.97721807	      0.17816645	      0.35558720	      0.71494575	      1.40804071	     -0.94063640	    -20.87671380	      5.64852727	      0.09858540	     19.62770984	      7.50868879	      0.00000000	      5.11282711	     -4.51923127	      9.70771131	      8.72743525	      0.15232248	     30.10055523	      2.58544891	      0.00000000	      0.07873723	      0.75406711	      0.34681783	      0.14622291	      1.00290926	      0.36849395	      0.12935739	      1.83343877	      0.36849395	      0.08998878	      1.83343877	      0.30346561	      0.07311539	      1.53769365	      0.28178949	      0.04499045	      1.16804995	      0.26011338	      0.56241216	      8.53015796	      1.92889675	      0.00000000	      0.00000000	     14.96312686	     -2.56775786	      3.20798727	     -5.42131176	    -15.59860956	     17.81424596	     35.06153895	     74.65714797	    -10.46071583	     -0.08014707	     16.37434926	    -19.93652473	     19.45551375	     75.03533887	     86.38383047	      2.49023351	     20.62049513
     11.30769231	      5.30048483	    -11.04693958	    114.09093292	      0.17775089	      0.35587938	      0.71391289	      1.28758080	     -0.69567719	    -20.61445983	      5.52915495	      0.09650196	     19.28895367	      7.73319447	      0.00000000	      5.10290696	     -4.71387823	      9.79739992	      8.68255656	      0.15153920	     30.42411619	      2.58042182	      0.00000000	      0.07362771	      0.77547777	      0.30049811	      0.13673402	      1.03138543	      0.31927924	      0.12096296	      1.88549665	      0.31927924	      0.08414911	      1.88549665	      0.26293585	      0.06837069	      1.58135427	      0.24415472	      0.04207087	      1.20121507	      0.22537358	      0.52591536	      8.77235964	      1.67128035	      0.00000000	      0.00000000	     14.14585389	     -3.32549677	      3.64043274	     -5.31537959	    -15.54509190	     18.09155877	     34.74118276	     74.82927635	    -10.48917693	     -0.19861336	     17.01478261	    -21.89820978	     22.18384240	     79.14039046	     86.60974180	      4.81517555	     20.40137578
     11.33333333	      5.10694975	    -11.10584228	    114.41046952	      0.17742847	      0.35625315	      0.71337891	      1.04900942	     -0.81982288	    -20.42628954	      5.22497403	      0.09119300	     19.17902028	      7.68393014	      0.00000000	      5.11736800	     -4.49364751	      9.97659945	      8.60210593	      0.15013507	     30.66546255	      3.06257167	      0.00000000	      0.04785428	      0.74332502	      0.22090990	      0.08887017	      0.98862227	      0.23471677	      0.07861979	      1.80732044	      0.23471677	      0.05469265	      1.80732044	      0.19329616	      0.04443748	      1.51578837	      0.17948930	      0.02734393	      1.15141045	      0.16568243	      0.34181830	      8.40864124	      1.22863460	      0.00000000	      0.00000000	     13.44791303	     -3.68569565	      4.14720262	     -4.87721135	    -15.32888244	     19.16771373	     34.01135799	     75.30064463	    -10.84754945	     -0.70768002	     18.95230921	    -23.88781781	     26.70631615	     82.51804981	     87.47870660	      8.89667994	     19.05530503
     11.35897436	      5.15538021	    -11.13239926	    114.22369172	      0.17794967	      0.35631033	      0.71238987	      1.00630689	     -0.67737739	    -19.54911635	      5.00421643	      0.08734005	     19.31792404	      7.30350607	      0.00000000	      5.02121559	     -4.66977211	      8.65515174	      8.41326857	      0.14683924	     31.17636601	      4.66989848	      0.00000000	      0.03257630	      0.73105776	      0.24864493	      0.06049744	      0.97230682	      0.26418524	      0.05351960	      1.77749383	      0.26418524	      0.03723145	      1.77749383	      0.21756432	      0.03025035	      1.49077298	      0.20202401	      0.01861410	      1.13240847	      0.18648370	      0.23268922	      8.26987156	      1.38288852	      0.00000000	      0.00000000	     12.86046957	     -4.17429497	      3.85872340	     -4.47616438	    -15.14035777	     20.61520498	     33.35421684	     74.49773142	    -11.65017621	     -1.16193748	     21.52979575	    -25.15171748	     32.13752991	     85.00772255	     88.48801795	     13.10080923	     14.26833766
     11.38461538	      5.13800128	    -11.30761243	    113.99039255	      0.17863405	      0.35607775	      0.71138178	      1.11053345	     -0.69844438	    -19.04561650	      4.81328496	      0.08400767	     19.64069085	      7.46955363	      0.00000000	      4.98179721	     -4.67217205	      8.18856559	      8.21977294	      0.14346210	     31.34068543	      4.96077268	      0.00000000	      0.04084936	      0.70552847	      0.20797452	      0.07586134	      0.93835287	      0.22097293	      0.06711141	      1.71542193	      0.22097293	      0.04668673	      1.71542193	      0.18197771	      0.03793271	      1.43871366	      0.16897930	      0.02334132	      1.09286361	      0.15598089	      0.29178288	      7.98107920	      1.15669191	      0.00000000	      0.00000000	     12.41243557	     -4.41057211	      4.49621202	     -3.72628787	    -14.86506086	     22.19061124	     32.47919000	     74.98190496	    -11.50370216	     -0.59591152	     23.80648799	    -25.71721168	     36.96472049	     88.04424358	     88.90367731	     15.36105395	     12.29438358
     11.41025641	      5.14957424	    -11.34956734	    113.30498713	      0.18024499	      0.35609703	      0.71060746	      1.27574051	     -0.60919455	    -17.83684575	      4.77982494	      0.08342368	     19.91130416	      6.97997333	      0.00000000	      4.83434723	     -5.00085517	      4.74480949	      8.17665881	      0.14270962	     31.86189595	      8.64842644	      0.00000000	      0.03156039	      0.68114943	      0.34016583	      0.05861081	      0.90592874	      0.36142619	      0.05185057	      1.65614672	      0.36142619	      0.03607037	      1.65614672	      0.29764510	      0.02930698	      1.38899991	      0.27638473	      0.01803361	      1.05510046	      0.25512437	      0.22543274	      7.70529855	      1.89190028	      0.00000000	      0.00000000	     12.18924855	     -4.58525016	      4.15541579	     -2.96255401	    -14.83547078	     25.32287473	     31.67335773	     72.85228048	    -12.45227198	     -0.63365767	     26.02786858	    -25.05073504	     41.59794173	     90.01327599	     89.06131007	     15.15959539	      8.23362920
